<svg xmlns="http://www.w3.org/2000/svg" width="186.042" height="121.453" viewBox="0 0 186.042 121.453">
  <g id="Grupo_80528" data-name="Grupo 80528" transform="translate(-285 -559)">
    <circle id="Elipse_4754" data-name="Elipse 4754" cx="60.727" cy="60.727" r="60.727" transform="translate(320.158 559)" fill="#5038a1"/>
    <path id="Trazado_113655" data-name="Trazado 113655" d="M-19.845,0h7.82L-8.87,16.188H-23Z" transform="translate(397.55 588.682)" fill="#d4a181"/>
    <path id="Trazado_113661" data-name="Trazado 113661" d="M-7.623,0h22.38L30.6,77.071s-10.435,6.605-27.38,6.605S-23.25,77.6-23.25,77.6Z" transform="translate(377.766 596.777)" fill="#fedc72"/>
    <path id="Trazado_113654" data-name="Trazado 113654" d="M-2.948-34.026A3.8,3.8,0,0,1,0-38.123a18.819,18.819,0,0,1,10.644,0,4.7,4.7,0,0,1,3.692,4.1,19.573,19.573,0,0,1,0,8.406c-1.037,4.331-.883,6.688-4.15,8.917s-5.633,2.22-8.917,0-3.164-4.55-4.219-8.881A19.458,19.458,0,0,1-2.948-34.026Z" transform="translate(375.909 608.794)" fill="#d4a181"/>
    <path id="Trazado_113659" data-name="Trazado 113659" d="M5.745,8.091c1.211,1.738,5.807,3.448,7.422,2.9a11.051,11.051,0,0,0-.739-3.768s3.761,5.03,9.444,4.472c.045-1.966-.283-8.431-7.936-9.328,1.286-.181,3.132-.559,6.591,2.032-1.083-2.289-8.309-7.35-14.813-2.092C.5,3.039-1.612,7.268,1.349,14.722,2.022,14.494,5.386,13.259,5.745,8.091Z" transform="matrix(0.995, 0.105, -0.105, 0.995, 372.263, 564.938)" fill="#8c6df2"/>
    <path id="Trazado_113657" data-name="Trazado 113657" d="M1.877,0c.942.015,1.728,1.353,1.756,2.988a8.734,8.734,0,0,1-.688,3.238S-.225,4.29.013,2.219.935-.014,1.877,0Z" transform="matrix(0.978, -0.208, 0.208, 0.978, 369.541, 579.501)" fill="#d4a181"/>
    <path id="Trazado_113660" data-name="Trazado 113660" d="M1.877,6.225c.942-.015,1.728-1.353,1.756-2.988A8.734,8.734,0,0,0,2.945,0S-.225,1.936.013,4.007.935,6.24,1.877,6.225Z" transform="matrix(-0.978, -0.208, 0.208, -0.978, 392.365, 585.59)" fill="#d4a181"/>
    <path id="Skin" d="M4.057,0,18.9,12.585A42.217,42.217,0,0,1,29.241,17.6c.63.66,1.356,1.958-1.419,1.548s-5.711-.716-6.163.209,1.157,2.18.289,3.41q-.867,1.23-6.9-6.952L0,8.309Z" transform="translate(331.733 615.676) rotate(-166)" fill="#d4a181" fill-rule="evenodd"/>
    <path id="Coat-Back" d="M4.875,52,17.2,54.676c2.468-12.211-4.548-28.169-2.437-33.986S24.908,11.464,31.549,6.929A13.59,13.59,0,0,0,28.6,0C21.987.46,12.8,3.075,6.317,7.416S-3.223,40.079,4.875,52Z" transform="translate(322.98 628.417) rotate(-106)" fill="#fedc72" fill-rule="evenodd"/>
    <path id="Skin-2" data-name="Skin" d="M4.057,22.931,18.9,10.346A42.218,42.218,0,0,0,29.241,5.328c.63-.66,1.356-1.958-1.419-1.548s-5.711.716-6.163-.209,1.157-2.18.289-3.41q-.867-1.23-6.9,6.952L0,14.622Z" transform="translate(425.95 593.426) rotate(-14)" fill="#d4a181" fill-rule="evenodd"/>
    <path id="Coat-Back-2" data-name="Coat-Back" d="M4.875,2.678,17.2,0c2.468,12.211-4.548,28.169-2.437,33.986s10.144,9.225,16.785,13.761A13.59,13.59,0,0,1,28.6,54.676C21.987,54.216,12.8,51.6,6.317,47.26S-3.223,14.6,4.875,2.678Z" transform="translate(387.693 613.345) rotate(-74)" fill="#fedc72" fill-rule="evenodd"/>
    <path id="Skin-3" data-name="Skin" d="M4.057,0,18.9,12.585A42.218,42.218,0,0,1,29.241,17.6c.63.66,1.356,1.958-1.419,1.548s-5.711-.716-6.163.209,1.157,2.18.289,3.41q-.867,1.23-6.9-6.952L0,8.309Z" transform="matrix(-0.996, 0.087, -0.087, -0.996, 336.495, 636.134)" fill="#d4a181" fill-rule="evenodd"/>
    <path id="Coat-Back-3" data-name="Coat-Back" d="M5.406,49.814,17.02,51.071c2.713-12.211-3.182-24.565-.862-30.382S27.31,11.464,34.611,6.929A12.909,12.909,0,0,0,31.364,0C24.1.46,14,3.075,6.871,7.416S-3.5,37.895,5.406,49.814Z" transform="matrix(-0.682, -0.731, 0.731, -0.682, 339.057, 650.983)" fill="#fedc72" fill-rule="evenodd"/>
    <path id="Skin-4" data-name="Skin" d="M4.057,22.931,18.9,10.346A42.218,42.218,0,0,0,29.241,5.328c.63-.66,1.356-1.958-1.419-1.548s-5.711.716-6.163-.209,1.157-2.18.289-3.41q-.867-1.23-6.9,6.952L0,14.622Z" transform="matrix(0.996, 0.087, -0.087, 0.996, 428.734, 613.291)" fill="#d4a181" fill-rule="evenodd"/>
    <path id="Coat-Back-4" data-name="Coat-Back" d="M5.406,1.258,17.02,0c2.713,12.211-3.182,24.565-.862,30.382S27.31,39.607,34.611,44.142a12.909,12.909,0,0,1-3.247,6.929C24.1,50.611,14,48,6.871,43.656S-3.5,13.176,5.406,1.258Z" transform="matrix(0.682, -0.731, 0.731, 0.682, 386.823, 616.152)" fill="#fedc72" fill-rule="evenodd"/>
    <path id="Skin-5" data-name="Skin" d="M4.057,0,18.9,12.585A42.218,42.218,0,0,1,29.241,17.6c.63.66,1.356,1.958-1.419,1.548s-5.711-.716-6.163.209,1.157,2.18.289,3.41q-.867,1.23-6.9-6.952L0,8.309Z" transform="translate(342.694 654.574) rotate(154)" fill="#d4a181" fill-rule="evenodd"/>
    <path id="Coat-Back-5" data-name="Coat-Back" d="M5.781,46.222l12.378,4.849c2.713-12.211-3.033-15.106-3.952-25.546s11.1-9.789,21.543-18.6A12.909,12.909,0,0,0,32.5,0C25.238.46,13.471,5.891,6.34,10.232S-3.122,34.3,5.781,46.222Z" transform="translate(351.431 668.018) rotate(-154)" fill="#fedc72" fill-rule="evenodd"/>
    <path id="Skin-6" data-name="Skin" d="M4.057,22.931,18.9,10.346A42.218,42.218,0,0,0,29.241,5.328c.63-.66,1.356-1.958-1.419-1.548s-5.711.716-6.163-.209,1.157-2.18.289-3.41q-.867-1.23-6.9,6.952L0,14.622Z" transform="translate(430.589 633.964) rotate(26)" fill="#d4a181" fill-rule="evenodd"/>
    <path id="Coat-Back-6" data-name="Coat-Back" d="M5.781,4.85,18.159,0c2.713,12.211-3.033,15.106-3.952,25.546s11.1,9.789,21.543,18.6A12.909,12.909,0,0,1,32.5,51.071c-7.265-.46-19.032-5.891-26.163-10.232S-3.122,16.768,5.781,4.85Z" transform="translate(389.412 622.115) rotate(-26)" fill="#fedc72" fill-rule="evenodd"/>
    <path id="Trazado_113662" data-name="Trazado 113662" d="M0,10.563C7.658,7.463,17.734,1.645,19.755,0,15.038,1.219,4.11,7.037,0,10.563Z" transform="translate(345.545 610.809) rotate(-14)" fill="#fdb74d"/>
    <path id="Trazado_113669" data-name="Trazado 113669" d="M0,0C7.658,3.1,17.734,8.919,19.755,10.563,15.038,9.345,4.11,3.526,0,0Z" transform="translate(415.248 621.059) rotate(-166)" fill="#fdb74d"/>
    <path id="Trazado_113668" data-name="Trazado 113668" d="M0,10.563C7.658,7.463,17.734,1.645,19.755,0,15.038,1.219,4.11,7.037,0,10.563Z" transform="matrix(0.891, -0.454, 0.454, 0.891, 345.209, 629.231)" fill="#fdb74d"/>
    <path id="Trazado_113670" data-name="Trazado 113670" d="M0,0C7.658,3.1,17.734,8.919,19.755,10.564,15.038,9.345,4.11,3.526,0,0Z" transform="matrix(-0.891, -0.454, 0.454, -0.891, 413.345, 638.643)" fill="#fdb74d"/>
    <path id="Trazado_113666" data-name="Trazado 113666" d="M-3745.229-10299.907a93.937,93.937,0,0,0,1.853-11.593S-3745.572-10307.316-3745.229-10299.907Z" transform="translate(4107.569 10945.66)" fill="#fdb74d"/>
    <path id="Trazado_113667" data-name="Trazado 113667" d="M-3743.413-10299.907a93.9,93.9,0,0,1-1.852-11.593S-3743.07-10307.316-3743.413-10299.907Z" transform="translate(4144.335 10945.66)" fill="#fdb74d"/>
    <path id="Trazado_113671" data-name="Trazado 113671" d="M16.361,10.248a.3.3,0,0,0-.1-.047l-.009-.007-.019-.014-.042-.028a1.351,1.351,0,0,0-.226-.109,3.186,3.186,0,0,1-1.4-1.128,8.726,8.726,0,0,1-1.4-4.086c-.029-.21-.047-.422-.061-.637l-.012-.161-.006-.081a.558.558,0,0,0-.036-.2.377.377,0,0,0-.171-.192.369.369,0,0,0-.433.06.394.394,0,0,0-.121.265l-.007.089-.013.162a12.522,12.522,0,0,1-.158,1.293,9.757,9.757,0,0,1-.714,2.406,4.713,4.713,0,0,1-1.271,1.733,2.336,2.336,0,0,1-.377.255c-.22.125-.643.256-.874.371l-.071.146a.265.265,0,0,0-.041.2.8.8,0,0,0,.147.267l.173.092.443.151c.04.014.083.027.119.044a.344.344,0,0,1,.069.036l.023.014.1.058a2.894,2.894,0,0,1,.43.313,4.392,4.392,0,0,1,.866,1.091,9.364,9.364,0,0,1,1.069,3.273c.042.309.085.618.106.929l.02.232a.622.622,0,0,0,.019.13.332.332,0,0,0,.51.188A.341.341,0,0,0,13,17.231a.38.38,0,0,0,.04-.145l0-.038,0-.058.033-.459a12.352,12.352,0,0,1,.266-1.717,7.774,7.774,0,0,1,.9-2.319,3.922,3.922,0,0,1,1.368-1.413c.382-.211.616-.252.654-.3.023-.02.071-.215,0-.142-.028.023-.031.04.022.038a.218.218,0,0,0,.151-.13.262.262,0,0,0,.024-.1.231.231,0,0,0-.1-.2Z" transform="translate(349.678 575.023)" fill="#fdb74d"/>
    <path id="Trazado_113672" data-name="Trazado 113672" d="M14.894,8.943a.241.241,0,0,0-.08-.038L14.807,8.9l-.015-.011-.034-.023a1.089,1.089,0,0,0-.182-.088,2.568,2.568,0,0,1-1.128-.91,7.034,7.034,0,0,1-1.13-3.294c-.023-.169-.038-.341-.049-.514l-.01-.13,0-.065a.45.45,0,0,0-.029-.158.3.3,0,0,0-.138-.155.3.3,0,0,0-.349.048.317.317,0,0,0-.1.214l-.006.072-.011.131A10.094,10.094,0,0,1,11.5,5.058,7.865,7.865,0,0,1,10.921,7,3.8,3.8,0,0,1,9.9,8.395a1.883,1.883,0,0,1-.3.206c-.177.1-.519.206-.7.3l-.058.117a.214.214,0,0,0-.033.158.645.645,0,0,0,.118.216l.139.074.357.122c.032.011.067.022.1.035a.278.278,0,0,1,.056.029l.019.011.079.047a2.333,2.333,0,0,1,.346.252,3.54,3.54,0,0,1,.7.879,7.548,7.548,0,0,1,.861,2.638c.034.249.069.5.086.749l.016.187a.5.5,0,0,0,.016.1.268.268,0,0,0,.411.151.275.275,0,0,0,.087-.1.307.307,0,0,0,.032-.117l0-.031,0-.047.026-.37a9.957,9.957,0,0,1,.214-1.384,6.267,6.267,0,0,1,.722-1.869,3.161,3.161,0,0,1,1.1-1.139c.308-.17.5-.2.527-.242.019-.016.057-.173,0-.114-.023.019-.025.033.017.03a.176.176,0,0,0,.122-.1.211.211,0,0,0,.019-.082.186.186,0,0,0-.078-.16Z" transform="translate(402.278 579.565)" fill="#fdb74d"/>
    <path id="Trazado_113673" data-name="Trazado 113673" d="M12.027,6.392a.127.127,0,0,0-.043-.02l0,0-.008-.006-.018-.012a.577.577,0,0,0-.1-.047,1.361,1.361,0,0,1-.6-.482,3.727,3.727,0,0,1-.6-1.746c-.012-.09-.02-.18-.026-.272l-.005-.069,0-.034a.238.238,0,0,0-.015-.084.161.161,0,0,0-.073-.082.158.158,0,0,0-.185.025.168.168,0,0,0-.052.113l0,.038-.006.069a5.349,5.349,0,0,1-.068.552,4.168,4.168,0,0,1-.3,1.028,2.013,2.013,0,0,1-.543.74,1,1,0,0,1-.161.109c-.094.054-.275.109-.373.158l-.03.062a.113.113,0,0,0-.017.084.342.342,0,0,0,.063.114l.074.039.189.064c.017.006.035.012.051.019a.147.147,0,0,1,.03.016l.01.006.042.025a1.236,1.236,0,0,1,.184.134,1.876,1.876,0,0,1,.37.466,4,4,0,0,1,.456,1.4c.018.132.036.264.045.4l.009.1a.266.266,0,0,0,.008.055.142.142,0,0,0,.218.08.146.146,0,0,0,.046-.053.162.162,0,0,0,.017-.062V9.3l0-.025.014-.2a5.276,5.276,0,0,1,.114-.733,3.321,3.321,0,0,1,.383-.991,1.675,1.675,0,0,1,.584-.6c.163-.09.263-.107.279-.128s.03-.092,0-.06c-.012.01-.013.017.009.016a.093.093,0,0,0,.065-.055.112.112,0,0,0,.01-.043.1.1,0,0,0-.041-.085Z" transform="translate(335.273 588.486)" fill="#fdb74d"/>
    <path id="Trazado_113674" data-name="Trazado 113674" d="M21.178,19.5,19.695,15.45a9.17,9.17,0,1,0-2.706,3.573l3.343,1.309C21.07,20.621,21.451,20.248,21.178,19.5ZM6.719,13.065A1.171,1.171,0,1,1,7.89,11.894,1.172,1.172,0,0,1,6.719,13.065Zm4.324,0a1.171,1.171,0,1,1,1.171-1.171A1.172,1.172,0,0,1,11.044,13.065Zm4.324,0a1.171,1.171,0,1,1,1.171-1.171A1.172,1.172,0,0,1,15.368,13.065Z" transform="translate(290.177 626.275)" fill="#8c6df2"/>
    <path id="Trazado_113675" data-name="Trazado 113675" d="M22.651,15.1h-8.8a1.144,1.144,0,0,1-1.188,1.162H10.454A1.233,1.233,0,0,1,9.265,15.1H.581A.582.582,0,0,0,0,15.681v.581a2.33,2.33,0,0,0,2.323,2.323H20.908a2.33,2.33,0,0,0,2.323-2.323v-.581A.582.582,0,0,0,22.651,15.1ZM20.908,1.742A1.747,1.747,0,0,0,19.166,0H4.065A1.747,1.747,0,0,0,2.323,1.742v12.2H20.908Zm-2.323,9.873H4.646V2.323H18.585Z" transform="translate(285 597.462)" fill="#8c6df2"/>
    <path id="Trazado_113676" data-name="Trazado 113676" d="M6.943,44.827h7a3.5,3.5,0,0,0,3.5-3.5H18.6A4.664,4.664,0,0,0,18.6,32H4.319a.872.872,0,0,0-.875.875v8.454A3.5,3.5,0,0,0,6.943,44.827ZM18.6,34.332A2.332,2.332,0,1,1,18.6,39H17.438V34.332Zm1.738,13.993H1.706c-1.735,0-2.223-2.332-1.312-2.332H21.65c.911,0,.43,2.332-1.308,2.332Z" transform="translate(296.672 536.16)" fill="#8c6df2"/>
    <path id="path7895-0-3" d="M1.421,0A1.41,1.41,0,0,0,0,1.391V16.934a1.411,1.411,0,0,0,1.421,1.392H9.509a1.38,1.38,0,0,0,1.385-1.392V1.391A1.379,1.379,0,0,0,9.509,0ZM4.3.715H6.605A.287.287,0,0,1,6.878,1a.292.292,0,0,1-.272.288v0h-2.3v0A.28.28,0,0,1,4.016,1,.284.284,0,0,1,4.3.715ZM1.383,2.031l8,.126V15.641l-8-.126ZM5.446,16.044a.86.86,0,1,1-.86.859A.859.859,0,0,1,5.446,16.044Z" transform="translate(452.637 568.16) rotate(17)" fill="#8c6df2"/>
    <path id="Trazado_113677" data-name="Trazado 113677" d="M12.177,5a8.177,8.177,0,1,0,8.177,8.177A8.178,8.178,0,0,0,12.177,5Zm.743,8.921H8.457a.739.739,0,0,1-.74-.74v-.008a.739.739,0,0,1,.74-.739h2.977V7.97a.739.739,0,0,1,.74-.74h.008a.739.739,0,0,1,.739.74Z" transform="translate(449.209 595.241)" fill="#8c6df2"/>
    <path id="Línea_156" data-name="Línea 156" d="M-1.279-.593a.684.684,0,0,1-.485-.2L-4.8-3.829a.686.686,0,0,1,0-.97.686.686,0,0,1,.97,0L-.794-1.764a.686.686,0,0,1,0,.97A.684.684,0,0,1-1.279-.593Z" transform="translate(469.3 617.126)" fill="#8c6df2"/>
    <path id="Línea_157" data-name="Línea 157" d="M-4.314-.593a.684.684,0,0,1-.485-.2.686.686,0,0,1,0-.97L-1.764-4.8a.686.686,0,0,1,.97,0,.686.686,0,0,1,0,.97L-3.829-.794A.684.684,0,0,1-4.314-.593Z" transform="translate(458.959 617.126)" fill="#8c6df2"/>
    <path id="Trazado_113678" data-name="Trazado 113678" d="M24.8,8.472a3.9,3.9,0,0,0-5.5-5.5Z" transform="translate(445.283 596.008)" fill="#8c6df2"/>
    <path id="Trazado_113679" data-name="Trazado 113679" d="M8.46,2.958a3.9,3.9,0,0,0-5.5,5.5Z" transform="translate(449.722 596.011)" fill="#8c6df2"/>
    <path id="Trazado_113680" data-name="Trazado 113680" d="M21.541,8.348,17.413,4.22A.75.75,0,0,0,16.882,4H10.5A1.5,1.5,0,0,0,9,5.5V19.013a1.5,1.5,0,0,0,1.5,1.5H20.26a1.5,1.5,0,0,0,1.5-1.5V8.879A.75.75,0,0,0,21.541,8.348Zm-5.035,8.413H12.753a.751.751,0,1,1,0-1.5h3.753a.751.751,0,0,1,0,1.5Zm1.5-3H12.753a.751.751,0,0,1,0-1.5h5.255a.751.751,0,0,1,0,1.5Zm-.751-4.5a.751.751,0,0,1-.751-.751V5.429l3.825,3.825Z" transform="translate(447.878 626.799)" fill="#8c6df2"/>
    <path id="Trazado_113681" data-name="Trazado 113681" d="M6.252,19.013V5.5A2.972,2.972,0,0,1,6.669,4H5.5A1.5,1.5,0,0,0,4,5.5V19.013a1.5,1.5,0,0,0,1.5,1.5H6.669A2.972,2.972,0,0,1,6.252,19.013Z" transform="translate(449.125 626.799)" fill="#8c6df2"/>
  </g>
</svg>
