<svg xmlns="http://www.w3.org/2000/svg" width="45" height="45" viewBox="0 0 45 45">
  <g id="Grupo_115735" data-name="Grupo 115735" transform="translate(-181 -283)">
    <path id="Trazado_114641" data-name="Trazado 114641" d="M0,0H45V45H0Z" transform="translate(181 283)" fill="#8c6df2"/>
    <path id="puzzle-piece-solid" d="M24.825,13.8c-1.984,0-2.844,1.51-3.922,1.51-2.866,0-.257-8.423-.257-8.423s-9.381,3.823-9.381-.158C11.265,5.012,13,4.514,13,2.615A2.652,2.652,0,0,0,10.062,0C8.406,0,6.89.9,6.89,2.693,6.89,4.67,8.406,5.526,8.406,6.6,8.406,9.927,0,7.97,0,7.97V23.9s8.537,1.962,8.537-1.37c0-1.074-1.912-1.917-1.912-3.894,0-1.79,1.4-2.693,3.038-2.693a2.657,2.657,0,0,1,2.953,2.615c0,1.9-1.734,2.4-1.734,4.109,0,2.906,6.2,1.23,8.661,1.23,0,0-1.66-5.74,1.234-5.74,1.719,0,2.219,1.728,4.125,1.728a2.654,2.654,0,0,0,2.625-2.942C27.528,15.305,26.622,13.8,24.825,13.8Z" transform="translate(190 293)" fill="#fff"/>
  </g>
</svg>
